:FULLY-SPECIFIED
:FORCE-ALL-JOINTS-BE-3DOF
:DEGREES
34
root 5.93507 16.9094 -28.1393 9.96167 -2.2608 -1.77661
lfemur -18.6616 0.548335 -20.6072
ltibia 32.8693 0 0
lfoot -37.2612 4.2554 0
ltoes 37.0727 0 0
rfemur -17.5967 6.51551 19.1507
rtibia 31.4435 0 0
rfoot -27.4258 -17.8713 0
rtoes 14.5276 0 0
lowerback -5.51137 2.36638 -1.1799
upperback -1.84838 3.18411 0.575255
thorax 1.04157 1.61473 1.44153
lowerneck -9.45351 -1.4483 2.79421
upperneck -2.54723 -2.20543 0.797536
head 0.756309 -1.10805 -0.296086
lclavicle 2.48026e-014 4.7112e-015 0
lhumerus -41.3201 -13.219 97.355
lradius 39.0886 0 0
lwrist 5.80149 0 0
lhand -11.8259 4.39212 0
lfingers 7.12502 0 0
lthumb 14.2248 33.8846 0
rclavicle 2.48026e-014 4.7112e-015 0
rhumerus -40.871 -5.82939 -89.0218
rradius 38.6228 0 0
rwrist 11.1917 0 0
rhand -26.6371 -20.4901 0
rfingers 7.12502 0 0
rthumb -0.0696189 -50.4694 0
35
root 5.93267 16.9087 -28.1325 9.98964 -2.18069 -1.79838
lfemur -18.8561 0.638401 -20.5125
ltibia 32.9699 0 0
lfoot -37.0165 4.26242 0
ltoes 36.8349 0 0
rfemur -17.5026 6.54006 19.1883
rtibia 31.296 0 0
rfoot -27.37 -18.0213 0
rtoes 14.0971 0 0
lowerback -5.55659 2.35428 -1.04612
upperback -1.83153 3.16494 0.512472
thorax 1.1018 1.60159 1.30553
lowerneck -9.45704 -1.45317 2.81761
upperneck -2.60399 -2.21422 0.85749
head 0.739235 -1.11207 -0.28087
lclavicle 2.52751e-014 5.67686e-015 0
lhumerus -41.3285 -13.2142 97.2349
lradius 39.2519 0 0
lwrist 5.91875 0 0
lhand -11.8431 4.2565 0
lfingers 7.12502 0 0
lthumb 14.2082 33.7502 0
rclavicle 2.52751e-014 5.67686e-015 0
rhumerus -40.7785 -5.74103 -89.1277
rradius 38.6474 0 0
rwrist 11.1735 0 0
rhand -26.6607 -20.4567 0
rfingers 7.12502 0 0
rthumb -0.092405 -50.4362 0
36
root 5.93065 16.9078 -28.1256 10.0168 -2.09968 -1.82226
lfemur -19.056 0.732331 -20.4155
ltibia 33.0764 0 0
lfoot -36.7698 4.26912 0
ltoes 36.596 0 0
rfemur -17.4095 6.55628 19.2269
rtibia 31.1525 0 0
rfoot -27.3174 -18.1635 0
rtoes 13.6694 0 0
lowerback -5.59774 2.34379 -0.91556
upperback -1.81554 3.14797 0.452729
thorax 1.15826 1.5897 1.17426
lowerneck -9.46116 -1.4594 2.84021
upperneck -2.66003 -2.2247 0.915005
head 0.722455 -1.11698 -0.266351
lclavicle 2.56978e-014 6.60018e-015 0
lhumerus -41.3376 -13.2059 97.1163
lradius 39.4114 0 0
lwrist 6.03286 0 0
lhand -11.8588 4.12601 0
lfingers 7.12502 0 0
lthumb 14.193 33.6208 0
rclavicle 2.56978e-014 6.60018e-015 0
rhumerus -40.688 -5.64992 -89.2287
rradius 38.6749 0 0
rwrist 11.1532 0 0
rhand -26.6807 -20.4256 0
rfingers 7.12502 0 0
rthumb -0.111755 -50.4051 0
37
root 5.92903 16.9068 -28.1186 10.0429 -2.01804 -1.84815
lfemur -19.2606 0.829734 -20.3164
ltibia 33.1882 0 0
lfoot -36.522 4.27547 0
ltoes 36.3567 0 0
rfemur -17.3178 6.56431 19.2666
rtibia 31.0134 0 0
rfoot -27.2681 -18.2975 0
rtoes 13.2457 0 0
lowerback -5.63478 2.33491 -0.788567
upperback -1.80046 3.13323 0.396157
thorax 1.21087 1.57908 1.04805
lowerneck -9.46586 -1.46692 2.86196
upperneck -2.7152 -2.23681 0.969943
head 0.706017 -1.12273 -0.252565
lclavicle 2.60704e-014 7.47904e-015 0
lhumerus -41.3473 -13.1943 96.9996
lradius 39.5668 0 0
lwrist 6.1435 0 0
lhand -11.8732 4.00097 0
lfingers 7.12502 0 0
lthumb 14.1792 33.4968 0
rclavicle 2.60704e-014 7.47904e-015 0
rhumerus -40.5995 -5.55642 -89.3246
rradius 38.7053 0 0
rwrist 11.131 0 0
rhand -26.6972 -20.3967 0
rfingers 7.12502 0 0
rthumb -0.12768 -50.3764 0
